<?xml version="1.0" encoding="UTF-8" standalone="no"?>
<svg width="2124px" height="294px" viewBox="0 0 2124 294" version="1.1" xmlns="http://www.w3.org/2000/svg" xmlns:xlink="http://www.w3.org/1999/xlink" xmlns:sketch="http://www.bohemiancoding.com/sketch/ns">
    <!-- Generator: Sketch 3.1.1 (8761) - http://www.bohemiancoding.com/sketch -->
    <title>Untitled 2</title>
    <desc>Created with Sketch.</desc>
    <defs>
        <path id="path-1" d="M0.164,58.32 L58.694,58.32 L58.694,-0.21 L0.164,-0.21 L0.164,58.32 L0.164,58.32 Z"></path>
        <path id="path-3" d="M0.403,58.19 L58.934,58.19 L58.934,-0.34 L0.403,-0.34 L0.403,58.19 L0.403,58.19 Z"></path>
        <path id="path-5" d="M0.088,58.49 L58.618,58.49 L58.618,-0.04 L0.088,-0.04 L0.088,58.49 L0.088,58.49 Z"></path>
        <path id="path-7" d="M41.571,0.102 L0.183,41.49 L41.571,82.877 L82.958,41.49 L41.571,0.102 L41.571,0.102 Z"></path>
        <path id="path-9" d="M41.622,0.386 L0.235,41.773 L41.622,83.16 L83.009,41.773 L41.622,0.386 L41.622,0.386 Z"></path>
        <path id="path-11" d="M-0.451,58.32 L58.08,58.32 L58.08,-0.21 L-0.451,-0.21 L-0.451,58.32 L-0.451,58.32 Z"></path>
        <path id="path-13" d="M41.144,-0.195 L-0.244,41.192 L41.144,82.579 L82.531,41.192 L41.144,-0.195 L41.144,-0.195 Z"></path>
        <path id="path-15" d="M41.011,0.4 L-0.377,41.787 L41.011,83.174 L82.398,41.787 L41.011,0.4 L41.011,0.4 Z"></path>
    </defs>
    <g id="Page-1" stroke="none" stroke-width="1" fill="none" fill-rule="evenodd" sketch:type="MSPage">
        <g id="efcis-logo" sketch:type="MSLayerGroup" transform="translate(10.000000, 0.000000)">
            <g id="Group-3" transform="translate(41.000000, 41.000000)">
                <mask id="mask-2" sketch:name="Clip 2" fill="white">
                    <use xlink:href="#path-1"></use>
                </mask>
                <g id="Clip-2"></g>
                <path d="M0.1,-0.3 L58.78,-0.3 L58.78,58.38 L0.1,58.38 L0.1,-0.3 Z" id="Fill-1" fill="#DBE886" sketch:type="MSShapeGroup" mask="url(#mask-2)"></path>
            </g>
            <g id="Group-6" transform="translate(41.000000, 184.000000)">
                <mask id="mask-4" sketch:name="Clip 5" fill="white">
                    <use xlink:href="#path-3"></use>
                </mask>
                <g id="Clip-5"></g>
                <path d="M0.34,-0.38 L59.02,-0.38 L59.02,58.3 L0.34,58.3 L0.34,-0.38 Z" id="Fill-4" fill="#4093E3" sketch:type="MSShapeGroup" mask="url(#mask-4)"></path>
            </g>
            <g id="Group-9" transform="translate(183.000000, 183.000000)">
                <mask id="mask-6" sketch:name="Clip 8" fill="white">
                    <use xlink:href="#path-5"></use>
                </mask>
                <g id="Clip-8"></g>
                <path d="M0.06,-0.1 L58.62,-0.1 L58.62,58.58 L0.06,58.58 L0.06,-0.1 Z" id="Fill-7" fill="#FFD700" sketch:type="MSShapeGroup" mask="url(#mask-6)"></path>
            </g>
            <g id="Group-12" transform="translate(0.000000, 100.000000)">
                <mask id="mask-8" sketch:name="Clip 11" fill="white">
                    <use xlink:href="#path-7"></use>
                </mask>
                <g id="Clip-11"></g>
                <path d="M0.18,0.1 L82.98,0.1 L82.98,82.9 L0.18,82.9 L0.18,0.1 Z" id="Fill-10" fill="#236C9F" sketch:type="MSShapeGroup" mask="url(#mask-8)"></path>
            </g>
            <g id="Group-15" transform="translate(200.000000, 99.000000)">
                <mask id="mask-10" sketch:name="Clip 14" fill="white">
                    <use xlink:href="#path-9"></use>
                </mask>
                <g id="Clip-14"></g>
                <path d="M0.22,0.38 L83.02,0.38 L83.02,83.18 L0.22,83.18 L0.22,0.38 Z" id="Fill-13" fill="#FF9D0E" sketch:type="MSShapeGroup" mask="url(#mask-10)"></path>
            </g>
            <g id="Group-18" transform="translate(184.000000, 41.000000)">
                <mask id="mask-12" sketch:name="Clip 17" fill="white">
                    <use xlink:href="#path-11"></use>
                </mask>
                <g id="Clip-17"></g>
                <path d="M-0.46,-0.3 L58.1,-0.3 L58.1,58.38 L-0.46,58.38 L-0.46,-0.3 Z" id="Fill-16" fill="#328807" sketch:type="MSShapeGroup" mask="url(#mask-12)"></path>
            </g>
            <g id="Group-21" transform="translate(100.000000, 0.000000)">
                <mask id="mask-14" sketch:name="Clip 20" fill="white">
                    <use xlink:href="#path-13"></use>
                </mask>
                <g id="Clip-20"></g>
                <path d="M-0.34,-0.22 L82.58,-0.22 L82.58,82.58 L-0.34,82.58 L-0.34,-0.22 Z" id="Fill-19" fill="#BCE886" sketch:type="MSShapeGroup" mask="url(#mask-14)"></path>
            </g>
            <g id="Group-24" transform="translate(101.000000, 200.000000)">
                <mask id="mask-16" sketch:name="Clip 23" fill="white">
                    <use xlink:href="#path-15"></use>
                </mask>
                <g id="Clip-23"></g>
                <path d="M-0.38,0.3 L82.42,0.3 L82.42,83.22 L-0.38,83.22 L-0.38,0.3 Z" id="Fill-22" fill="#C2E0FF" sketch:type="MSShapeGroup" mask="url(#mask-16)"></path>
            </g>
            <path d="M338.81862,69.88392 L397.27098,69.88392 L397.27098,88.34256 L358.430925,88.34256 L358.430925,128.528558 L392.271765,128.528558 L392.271765,146.987198 L358.430925,146.987198 L358.430925,187.173195 L397.27098,187.173195 L397.27098,206.7855 L338.81862,206.7855 L338.81862,69.88392 Z M472.259205,176.213378 C472.259205,180.443504 471.458057,184.481291 469.855736,188.32686 C468.253416,192.172429 466.042247,195.537252 463.222163,198.421429 C460.402078,201.305606 457.101348,203.612913 453.319871,205.343419 C449.538395,207.073925 445.468562,207.939165 441.11025,207.939165 C437.392866,207.939165 433.611447,207.42643 429.765878,206.400945 C425.920308,205.37546 422.459348,203.612934 419.382893,201.113314 C416.306437,198.613694 413.774809,195.312963 411.787931,191.211023 C409.801054,187.109082 408.80763,181.917641 408.80763,175.636545 L408.80763,100.263765 C408.80763,95.7772676 409.576732,91.6112967 411.11496,87.7657275 C412.653188,83.9201583 414.832311,80.5873816 417.652395,77.7672975 C420.472479,74.9472134 423.837302,72.7360443 427.746964,71.1337238 C431.656626,69.5314032 435.982826,68.730255 440.725695,68.730255 C445.212192,68.730255 449.378163,69.5314032 453.223733,71.1337238 C457.069302,72.7360443 460.402078,74.9792593 463.222163,77.8634363 C466.042247,80.7476132 468.253416,84.2085736 469.855736,88.2464212 C471.458057,92.2842689 472.259205,96.6745613 472.259205,101.41743 L472.259205,109.10853 L452.6469,109.10853 L452.6469,102.571095 C452.6469,98.7255258 451.557338,95.3927491 449.378183,92.572665 C447.199027,89.7525809 444.250801,88.34256 440.533418,88.34256 C435.662363,88.34256 432.425724,89.8487187 430.823404,92.8610812 C429.221083,95.8734438 428.419935,99.6869094 428.419935,104.301592 L428.419935,174.290603 C428.419935,178.264357 429.285175,181.597134 431.015681,184.289033 C432.746187,186.980931 435.854643,188.32686 440.34114,188.32686 C441.622996,188.32686 443.000971,188.102538 444.475106,187.653889 C445.949241,187.205239 447.29517,186.468183 448.512934,185.442698 C449.730697,184.417212 450.724121,183.007191 451.493235,181.212593 C452.262349,179.417994 452.6469,177.174778 452.6469,174.48288 L452.6469,167.753168 L472.259205,167.753168 L472.259205,176.213378 Z M487.064573,102.18654 C487.064573,96.6745574 488.02595,91.8035762 489.948735,87.57345 C491.87152,83.3433238 494.403148,79.8503175 497.543696,77.0943262 C500.684244,74.338335 504.209297,72.2553496 508.118959,70.8453075 C512.028621,69.4352654 515.97027,68.730255 519.944025,68.730255 C523.91778,68.730255 527.859429,69.4352654 531.769091,70.8453075 C535.678753,72.2553496 539.203806,74.338335 542.344354,77.0943262 C545.484902,79.8503175 548.01653,83.3433238 549.939315,87.57345 C551.8621,91.8035762 552.823478,96.6745574 552.823478,102.18654 L552.823478,174.48288 C552.823478,180.123048 551.8621,185.026075 549.939315,189.192109 C548.01653,193.358142 545.484902,196.819102 542.344354,199.575094 C539.203806,202.331085 535.678753,204.41407 531.769091,205.824113 C527.859429,207.234155 523.91778,207.939165 519.944025,207.939165 C515.97027,207.939165 512.028621,207.234155 508.118959,205.824113 C504.209297,204.41407 500.684244,202.331085 497.543696,199.575094 C494.403148,196.819102 491.87152,193.358142 489.948735,189.192109 C488.02595,185.026075 487.064573,180.123048 487.064573,174.48288 L487.064573,102.18654 Z M506.676878,174.48288 C506.676878,179.225749 507.990761,182.718755 510.618566,184.962004 C513.246372,187.205252 516.354827,188.32686 519.944025,188.32686 C523.533223,188.32686 526.641678,187.205252 529.269484,184.962004 C531.897289,182.718755 533.211172,179.225749 533.211172,174.48288 L533.211172,102.18654 C533.211172,97.4436713 531.897289,93.950665 529.269484,91.7074162 C526.641678,89.4641675 523.533223,88.34256 519.944025,88.34256 C516.354827,88.34256 513.246372,89.4641675 510.618566,91.7074162 C507.990761,93.950665 506.676878,97.4436713 506.676878,102.18654 L506.676878,174.48288 Z M570.128452,69.88392 L589.740757,69.88392 L589.740757,187.173195 L628.580813,187.173195 L628.580813,206.7855 L570.128452,206.7855 L570.128452,69.88392 Z M640.117462,102.18654 C640.117462,96.6745574 641.07884,91.8035762 643.001625,87.57345 C644.92441,83.3433238 647.456038,79.8503175 650.596586,77.0943262 C653.737134,74.338335 657.262187,72.2553496 661.171849,70.8453075 C665.081511,69.4352654 669.02316,68.730255 672.996915,68.730255 C676.97067,68.730255 680.912319,69.4352654 684.821981,70.8453075 C688.731643,72.2553496 692.256696,74.338335 695.397244,77.0943262 C698.537792,79.8503175 701.06942,83.3433238 702.992205,87.57345 C704.91499,91.8035762 705.876368,96.6745574 705.876368,102.18654 L705.876368,174.48288 C705.876368,180.123048 704.91499,185.026075 702.992205,189.192109 C701.06942,193.358142 698.537792,196.819102 695.397244,199.575094 C692.256696,202.331085 688.731643,204.41407 684.821981,205.824113 C680.912319,207.234155 676.97067,207.939165 672.996915,207.939165 C669.02316,207.939165 665.081511,207.234155 661.171849,205.824113 C657.262187,204.41407 653.737134,202.331085 650.596586,199.575094 C647.456038,196.819102 644.92441,193.358142 643.001625,189.192109 C641.07884,185.026075 640.117462,180.123048 640.117462,174.48288 L640.117462,102.18654 Z M659.729767,174.48288 C659.729767,179.225749 661.043651,182.718755 663.671456,184.962004 C666.299262,187.205252 669.407717,188.32686 672.996915,188.32686 C676.586113,188.32686 679.694568,187.205252 682.322374,184.962004 C684.950179,182.718755 686.264063,179.225749 686.264063,174.48288 L686.264063,102.18654 C686.264063,97.4436713 684.950179,93.950665 682.322374,91.7074162 C679.694568,89.4641675 676.586113,88.34256 672.996915,88.34256 C669.407717,88.34256 666.299262,89.4641675 663.671456,91.7074162 C661.043651,93.950665 659.729767,97.4436713 659.729767,102.18654 L659.729767,174.48288 Z M722.027677,102.18654 C722.027677,96.6745574 722.989055,91.8035762 724.91184,87.57345 C726.834625,83.3433238 729.366253,79.8503175 732.506801,77.0943262 C735.647349,74.338335 739.172402,72.2553496 743.082064,70.8453075 C746.991726,69.4352654 750.933375,68.730255 754.90713,68.730255 C758.880885,68.730255 762.822534,69.4352654 766.732196,70.8453075 C770.641858,72.2553496 774.166911,74.338335 777.307459,77.0943262 C780.448007,79.8503175 782.979635,83.3433238 784.90242,87.57345 C786.825205,91.8035762 787.786582,96.6745574 787.786583,102.18654 L787.786583,109.10853 L768.174278,109.10853 L768.174278,102.18654 C768.174278,97.4436713 766.860394,93.950665 764.232589,91.7074162 C761.604783,89.4641675 758.496328,88.34256 754.90713,88.34256 C751.317932,88.34256 748.209477,89.4641675 745.581671,91.7074162 C742.953866,93.950665 741.639983,97.4436713 741.639983,102.18654 L741.639983,174.48288 C741.639983,179.225749 742.953866,182.718755 745.581671,184.962004 C748.209477,187.205252 751.317932,188.32686 754.90713,188.32686 C758.496328,188.32686 761.604783,187.205252 764.232589,184.962004 C766.860394,182.718755 768.174278,179.225749 768.174278,174.48288 L768.174278,148.717695 L752.5998,148.717695 L752.5998,131.41272 L787.786583,131.41272 L787.786583,174.48288 C787.786582,180.123048 786.825205,185.026075 784.90242,189.192109 C782.979635,193.358142 780.448007,196.819102 777.307459,199.575094 C774.166911,202.331085 770.641858,204.41407 766.732196,205.824113 C762.822534,207.234155 758.880885,207.939165 754.90713,207.939165 C750.933375,207.939165 746.991726,207.234155 743.082064,205.824113 C739.172402,204.41407 735.647349,202.331085 732.506801,199.575094 C729.366253,196.819102 726.834625,193.358142 724.91184,189.192109 C722.989055,185.026075 722.027677,180.123048 722.027677,174.48288 L722.027677,102.18654 Z M805.66839,69.88392 L825.280695,69.88392 L825.280695,206.7855 L805.66839,206.7855 L805.66839,69.88392 Z M844.316167,69.88392 L902.768527,69.88392 L902.768527,88.34256 L863.928472,88.34256 L863.928472,128.528558 L897.769313,128.528558 L897.769313,146.987198 L863.928472,146.987198 L863.928472,187.173195 L902.768527,187.173195 L902.768527,206.7855 L844.316167,206.7855 L844.316167,69.88392 Z M1003.32966,196.402515 C999.484091,200.248084 995.47835,203.132218 991.312316,205.055003 C987.146283,206.977787 982.435531,207.939165 977.17992,207.939165 C973.334351,207.939165 969.681115,207.170063 966.220102,205.631835 C962.75909,204.093607 959.746773,201.94653 957.18306,199.190539 C954.619347,196.434547 952.600454,193.101771 951.126319,189.192109 C949.652184,185.282447 948.915127,180.956246 948.915127,176.213378 C948.915127,168.650425 950.7097,162.048963 954.298897,156.408795 C957.888095,150.768627 962.374526,145.513094 967.758322,140.64204 C964.29731,135.770986 961.445222,130.739775 959.201974,125.548256 C956.958725,120.356738 955.837117,114.876884 955.837117,109.10853 C955.837117,105.519332 956.413944,102.090418 957.567615,98.8216838 C958.721286,95.5529499 960.387674,92.7329081 962.56683,90.3614738 C964.745986,87.9900394 967.501936,86.0993296 970.834762,84.6892875 C974.167589,83.2792454 978.077193,82.574235 982.56369,82.574235 C986.793816,82.574235 990.511144,83.2471995 993.715785,84.5931488 C996.920426,85.939098 999.612284,87.73367 1001.79144,89.9769187 C1003.9706,92.2201675 1005.63698,94.8479337 1006.79066,97.8602963 C1007.94433,100.872659 1008.52115,104.045206 1008.52115,107.378033 C1008.52115,113.787315 1006.5343,119.908087 1002.56055,125.740534 C998.586795,131.57298 993.908089,136.924651 988.524293,141.795705 C990.95982,145.513089 993.747816,149.999519 996.888364,155.25513 C1000.02891,160.510741 1003.26555,165.573998 1006.59838,170.445053 L1017.17364,156.02424 L1029.28712,164.48445 L1014.67403,183.327645 L1029.4794,206.7855 L1009.86709,206.7855 L1003.32966,196.402515 Z M966.220102,175.25199 C966.220102,179.994859 967.598077,184.064692 970.354069,187.461611 C973.11006,190.858531 976.603066,192.556965 980.833192,192.556965 C983.781462,192.556965 986.601504,191.627633 989.293402,189.768941 C991.985301,187.910249 994.03624,186.083631 995.446283,184.289033 L976.603087,154.293743 C973.654818,157.242012 971.187281,160.414559 969.200404,163.811479 C967.213526,167.208398 966.220102,171.021864 966.220102,175.25199 L966.220102,175.25199 Z M973.142092,109.493085 C973.142092,112.441355 973.847103,115.613902 975.257145,119.010821 C976.667187,122.407741 978.461759,125.836655 980.640915,129.297667 C981.794586,128.143997 983.076423,126.830114 984.486465,125.355979 C985.896507,123.881844 987.178344,122.247501 988.332015,120.452902 C989.485686,118.658304 990.447064,116.703502 991.216177,114.588439 C991.985291,112.473376 992.369843,110.198115 992.369843,107.762587 C992.369843,105.32706 991.536648,103.083845 989.870235,101.032875 C988.203822,98.9819047 985.896515,97.956435 982.948245,97.956435 C979.999975,97.956435 977.628576,99.1421344 975.833977,101.513569 C974.039379,103.885003 973.142092,106.544815 973.142092,109.493085 L973.142092,109.493085 Z M1160.80493,206.7855 L1142.34629,206.7855 L1127.34865,117.953295 L1126.96409,117.953295 L1112.15873,206.7855 L1093.70008,206.7855 L1073.31867,69.88392 L1094.08464,69.88392 L1103.89079,156.79335 L1104.27535,156.79335 L1119.65755,69.88392 L1134.65519,69.88392 L1150.61422,158.908403 L1150.99878,158.908403 L1160.42038,69.88392 L1181.18635,69.88392 L1160.80493,206.7855 Z M1217.71907,109.300808 L1217.33452,109.300808 L1207.72064,158.908403 L1227.33295,158.908403 L1217.71907,109.300808 Z M1209.45114,69.88392 L1225.79473,69.88392 L1256.36685,206.7855 L1236.75454,206.7855 L1230.98622,177.367043 L1204.25965,177.367043 L1198.49132,206.7855 L1178.87902,206.7855 L1209.45114,69.88392 Z M1268.28805,88.34256 L1245.59931,88.34256 L1245.59931,69.88392 L1310.58911,69.88392 L1310.58911,88.34256 L1287.90036,88.34256 L1287.90036,206.7855 L1268.28805,206.7855 L1268.28805,88.34256 Z M1319.24159,69.88392 L1377.69395,69.88392 L1377.69395,88.34256 L1338.8539,88.34256 L1338.8539,128.528558 L1372.69474,128.528558 L1372.69474,146.987198 L1338.8539,146.987198 L1338.8539,187.173195 L1377.69395,187.173195 L1377.69395,206.7855 L1319.24159,206.7855 L1319.24159,69.88392 Z M1409.99657,131.028165 L1421.14867,131.028165 C1424.60968,131.028165 1427.36563,130.547476 1429.4166,129.586084 C1431.46757,128.624691 1433.03782,127.246716 1434.1274,125.452117 C1435.21698,123.657519 1435.95403,121.446349 1436.33859,118.818544 C1436.72315,116.190738 1436.91542,113.146375 1436.91542,109.685362 C1436.91542,106.22435 1436.72315,103.179987 1436.33859,100.552181 C1435.95403,97.9243756 1435.15288,95.6811605 1433.93512,93.8224687 C1432.71736,91.963777 1431.01892,90.585802 1428.83977,89.6885025 C1426.66061,88.791203 1423.77648,88.34256 1420.18728,88.34256 L1409.99657,88.34256 L1409.99657,131.028165 Z M1390.38427,69.88392 L1421.91778,69.88392 C1444.99119,69.88392 1456.52773,83.2791185 1456.52773,110.069918 C1456.52773,118.017427 1455.27794,124.84321 1452.77832,130.547471 C1450.2787,136.251732 1445.8884,140.8343 1439.60731,144.295313 L1460.75783,206.7855 L1439.99186,206.7855 L1421.7255,148.33314 L1409.99657,148.33314 L1409.99657,206.7855 L1390.38427,206.7855 L1390.38427,69.88392 Z M1472.29448,69.88392 L1491.90679,69.88392 L1491.90679,132.374108 L1492.29134,132.374108 L1520.94069,69.88392 L1540.553,69.88392 L1513.82642,124.683008 L1545.55221,206.7855 L1524.78624,206.7855 L1502.48205,146.02581 L1491.90679,165.830393 L1491.90679,206.7855 L1472.29448,206.7855 L1472.29448,69.88392 Z M1635.53808,206.7855 L1617.07944,206.7855 L1602.08179,117.953295 L1601.69724,117.953295 L1586.89187,206.7855 L1568.43323,206.7855 L1548.05182,69.88392 L1568.81779,69.88392 L1578.62394,156.79335 L1579.0085,156.79335 L1594.39069,69.88392 L1609.38834,69.88392 L1625.34737,158.908403 L1625.73193,158.908403 L1635.15352,69.88392 L1655.91949,69.88392 L1635.53808,206.7855 Z M1692.45222,109.300808 L1692.06767,109.300808 L1682.45379,158.908403 L1702.06609,158.908403 L1692.45222,109.300808 Z M1684.18429,69.88392 L1700.52787,69.88392 L1731.1,206.7855 L1711.48769,206.7855 L1705.71937,177.367043 L1678.99279,177.367043 L1673.22447,206.7855 L1653.61217,206.7855 L1684.18429,69.88392 Z M1740.71387,69.88392 L1760.32618,69.88392 L1760.32618,187.173195 L1799.16623,187.173195 L1799.16623,206.7855 L1740.71387,206.7855 L1740.71387,69.88392 Z M1812.43338,69.88392 L1832.04568,69.88392 L1832.04568,206.7855 L1812.43338,206.7855 L1812.43338,69.88392 Z M1863.96375,88.34256 L1841.275,88.34256 L1841.275,69.88392 L1906.2648,69.88392 L1906.2648,88.34256 L1883.57605,88.34256 L1883.57605,206.7855 L1863.96375,206.7855 L1863.96375,88.34256 Z M1914.91729,69.88392 L1973.36965,69.88392 L1973.36965,88.34256 L1934.52959,88.34256 L1934.52959,128.528558 L1968.37043,128.528558 L1968.37043,146.987198 L1934.52959,146.987198 L1934.52959,187.173195 L1973.36965,187.173195 L1973.36965,206.7855 L1914.91729,206.7855 L1914.91729,69.88392 Z M1986.63679,69.88392 L2006.2491,69.88392 L2006.2491,206.7855 L1986.63679,206.7855 L1986.63679,69.88392 Z M2038.16716,88.34256 L2015.47842,88.34256 L2015.47842,69.88392 L2080.46821,69.88392 L2080.46821,88.34256 L2057.77947,88.34256 L2057.77947,206.7855 L2038.16716,206.7855 L2038.16716,88.34256 Z" id="ECOLOGIE-&amp;-WATERKWAL" fill="#FFFFFF" sketch:type="MSShapeGroup"></path>
        </g>
    </g>
</svg>