<?xml version="1.0" encoding="UTF-8" standalone="no"?>
<svg width="1251px" height="158px" viewBox="0 0 1251 158" version="1.1" xmlns="http://www.w3.org/2000/svg" xmlns:xlink="http://www.w3.org/1999/xlink" xmlns:sketch="http://www.bohemiancoding.com/sketch/ns">
    <!-- Generator: Sketch 3.1.1 (8761) - http://www.bohemiancoding.com/sketch -->
    <title>Untitled 2</title>
    <desc>Created with Sketch.</desc>
    <defs>
        <path id="path-1" d="M0.088664311,31.529894 L31.7320919,31.529894 L31.7320919,-0.113533569 L0.088664311,-0.113533569 L0.088664311,31.529894 L0.088664311,31.529894 Z"></path>
        <path id="path-3" d="M0.217876325,31.4596113 L31.8618445,31.4596113 L31.8618445,-0.183816254 L0.217876325,-0.183816254 L0.217876325,31.4596113 L0.217876325,31.4596113 Z"></path>
        <path id="path-5" d="M0.0475759717,31.6218021 L31.6910035,31.6218021 L31.6910035,-0.0216254417 L0.0475759717,-0.0216254417 L0.0475759717,31.6218021 L0.0475759717,31.6218021 Z"></path>
        <path id="path-7" d="M22.4747809,0.0551448763 L0.0989363958,22.4309894 L22.4747809,44.8062933 L44.8500848,22.4309894 L22.4747809,0.0551448763 L22.4747809,0.0551448763 Z"></path>
        <path id="path-9" d="M22.5023534,0.208685512 L0.12704947,22.5839894 L22.5023534,44.9592933 L44.8776572,22.5839894 L22.5023534,0.208685512 L22.5023534,0.208685512 Z"></path>
        <path id="path-11" d="M-0.243826855,31.529894 L31.4001413,31.529894 L31.4001413,-0.113533569 L-0.243826855,-0.113533569 L-0.243826855,31.529894 L-0.243826855,31.529894 Z"></path>
        <path id="path-13" d="M22.2439293,-0.105424028 L-0.131915194,22.2698799 L22.2439293,44.6451837 L44.6192332,22.2698799 L22.2439293,-0.105424028 L22.2439293,-0.105424028 Z"></path>
        <path id="path-15" d="M22.1720247,0.216254417 L-0.203819788,22.5915583 L22.1720247,44.9668622 L44.5473286,22.5915583 L22.1720247,0.216254417 L22.1720247,0.216254417 Z"></path>
    </defs>
    <g id="Page-1" stroke="none" stroke-width="1" fill="none" fill-rule="evenodd" sketch:type="MSPage">
        <g id="efcis-logo" sketch:type="MSLayerGroup" transform="translate(17.000000, 5.000000)">
            <g id="Group">
                <g id="Group-3" transform="translate(22.166078, 22.166078)">
                    <mask id="mask-2" sketch:name="Clip 2" fill="white">
                        <use xlink:href="#path-1"></use>
                    </mask>
                    <g id="Clip-2"></g>
                    <path d="M0.0540636042,-0.162190813 L31.7785866,-0.162190813 L31.7785866,31.5623322 L0.0540636042,31.5623322 L0.0540636042,-0.162190813 Z" id="Fill-1" fill="#DBE886" sketch:type="MSShapeGroup" mask="url(#mask-2)"></path>
                </g>
                <g id="Group-6" transform="translate(22.166078, 99.477032)">
                    <mask id="mask-4" sketch:name="Clip 5" fill="white">
                        <use xlink:href="#path-3"></use>
                    </mask>
                    <g id="Clip-5"></g>
                    <path d="M0.183816254,-0.205441696 L31.9083392,-0.205441696 L31.9083392,31.5190813 L0.183816254,31.5190813 L0.183816254,-0.205441696 Z" id="Fill-4" fill="#4093E3" sketch:type="MSShapeGroup" mask="url(#mask-4)"></path>
                </g>
                <g id="Group-9" transform="translate(98.936396, 98.936396)">
                    <mask id="mask-6" sketch:name="Clip 8" fill="white">
                        <use xlink:href="#path-5"></use>
                    </mask>
                    <g id="Clip-8"></g>
                    <path d="M0.0324381625,-0.0540636042 L31.6920848,-0.0540636042 L31.6920848,31.6704594 L0.0324381625,31.6704594 L0.0324381625,-0.0540636042 Z" id="Fill-7" fill="#FFD700" sketch:type="MSShapeGroup" mask="url(#mask-6)"></path>
                </g>
                <g id="Group-12" transform="translate(0.000000, 54.063604)">
                    <mask id="mask-8" sketch:name="Clip 11" fill="white">
                        <use xlink:href="#path-7"></use>
                    </mask>
                    <g id="Clip-11"></g>
                    <path d="M0.0973144876,0.0540636042 L44.8619788,0.0540636042 L44.8619788,44.8187279 L0.0973144876,44.8187279 L0.0973144876,0.0540636042 Z" id="Fill-10" fill="#236C9F" sketch:type="MSShapeGroup" mask="url(#mask-8)"></path>
                </g>
                <g id="Group-15" transform="translate(108.127208, 53.522968)">
                    <mask id="mask-10" sketch:name="Clip 14" fill="white">
                        <use xlink:href="#path-9"></use>
                    </mask>
                    <g id="Clip-14"></g>
                    <path d="M0.118939929,0.205441696 L44.8836042,0.205441696 L44.8836042,44.970106 L0.118939929,44.970106 L0.118939929,0.205441696 Z" id="Fill-13" fill="#FF9D0E" sketch:type="MSShapeGroup" mask="url(#mask-10)"></path>
                </g>
                <g id="Group-18" transform="translate(99.477032, 22.166078)">
                    <mask id="mask-12" sketch:name="Clip 17" fill="white">
                        <use xlink:href="#path-11"></use>
                    </mask>
                    <g id="Clip-17"></g>
                    <path d="M-0.24869258,-0.162190813 L31.4109541,-0.162190813 L31.4109541,31.5623322 L-0.24869258,31.5623322 L-0.24869258,-0.162190813 Z" id="Fill-16" fill="#328807" sketch:type="MSShapeGroup" mask="url(#mask-12)"></path>
                </g>
                <g id="Group-21" transform="translate(54.063604, 0.000000)">
                    <mask id="mask-14" sketch:name="Clip 20" fill="white">
                        <use xlink:href="#path-13"></use>
                    </mask>
                    <g id="Clip-20"></g>
                    <path d="M-0.183816254,-0.118939929 L44.6457244,-0.118939929 L44.6457244,44.6457244 L-0.183816254,44.6457244 L-0.183816254,-0.118939929 Z" id="Fill-19" fill="#BCE886" sketch:type="MSShapeGroup" mask="url(#mask-14)"></path>
                </g>
                <g id="Group-24" transform="translate(54.604240, 108.127208)">
                    <mask id="mask-16" sketch:name="Clip 23" fill="white">
                        <use xlink:href="#path-15"></use>
                    </mask>
                    <g id="Clip-23"></g>
                    <path d="M-0.205441696,0.162190813 L44.5592226,0.162190813 L44.5592226,44.9917314 L-0.205441696,44.9917314 L-0.205441696,0.162190813 Z" id="Fill-22" fill="#C2E0FF" sketch:type="MSShapeGroup" mask="url(#mask-16)"></path>
                </g>
            </g>
            <path d="M196.727011,35.5292287 L230.374803,35.5292287 L230.374803,46.1548471 L208.016731,46.1548471 L208.016731,69.2877039 L227.497031,69.2877039 L227.497031,79.9133224 L208.016731,79.9133224 L208.016731,103.046179 L230.374803,103.046179 L230.374803,114.335899 L196.727011,114.335899 L196.727011,35.5292287 Z M273.541378,96.7372183 C273.541378,99.172268 273.080201,101.496599 272.157834,103.71028 C271.235466,105.923962 269.962619,107.860904 268.339252,109.521165 C266.715886,111.181427 264.815837,112.509616 262.63905,113.505772 C260.462264,114.501929 258.119486,115 255.610647,115 C253.470754,115 251.294,114.704847 249.080319,114.114532 C246.866637,113.524217 244.874353,112.509628 243.103408,111.070735 C241.332463,109.631842 239.875144,107.731794 238.731409,105.370533 C237.587673,103.009273 237.015814,100.020848 237.015814,96.4051677 L237.015814,53.0172257 C237.015814,50.4345972 237.458544,48.0364781 238.344017,45.8227965 C239.229489,43.609115 240.48389,41.6906197 242.107257,40.0672532 C243.730623,38.4438867 245.667565,37.1710389 247.918142,36.2486716 C250.168718,35.3263042 252.659072,34.8651275 255.38928,34.8651275 C257.971908,34.8651275 260.370027,35.3263042 262.583709,36.2486716 C264.79739,37.1710389 266.715886,38.4623338 268.339252,40.122595 C269.962619,41.7828561 271.235466,43.7751397 272.157834,46.0995053 C273.080201,48.423871 273.541378,50.9511196 273.541378,53.6813268 L273.541378,58.1086679 L262.251658,58.1086679 L262.251658,54.345428 C262.251658,52.1317464 261.624458,50.2132512 260.370038,48.5898847 C259.115619,46.9665182 257.418488,46.1548471 255.278596,46.1548471 C252.474599,46.1548471 250.611445,47.0218594 249.689078,48.75591 C248.766711,50.4899605 248.305534,52.6851618 248.305534,55.3415797 L248.305534,95.630383 C248.305534,97.917854 248.803605,99.8363493 249.799762,101.385926 C250.795918,102.935503 252.585284,103.71028 255.167913,103.71028 C255.905806,103.71028 256.69903,103.581151 257.547608,103.322888 C258.396186,103.064625 259.170963,102.640343 259.871962,102.050028 C260.572962,101.459712 261.144821,100.648041 261.587557,99.6149899 C262.030293,98.5819385 262.251658,97.2906437 262.251658,95.7410666 L262.251658,91.8671432 L273.541378,91.8671432 L273.541378,96.7372183 Z M282.064009,54.1240609 C282.064009,50.9511173 282.617421,48.1471627 283.724262,45.712113 C284.831103,43.2770633 286.288421,41.2663327 288.096261,39.6798609 C289.904101,38.0933891 291.933279,36.8943295 294.183855,36.0826463 C296.434432,35.270963 298.703421,34.8651275 300.990892,34.8651275 C303.278363,34.8651275 305.547353,35.270963 307.797929,36.0826463 C310.048505,36.8943295 312.077683,38.0933891 313.885523,39.6798609 C315.693363,41.2663327 317.150681,43.2770633 318.257522,45.712113 C319.364363,48.1471627 319.917775,50.9511173 319.917775,54.1240609 L319.917775,95.7410666 C319.917775,98.9877995 319.364363,101.810201 318.257522,104.208356 C317.150681,106.606511 315.693363,108.598795 313.885523,110.185267 C312.077683,111.771738 310.048505,112.970798 307.797929,113.782481 C305.547353,114.594164 303.278363,115 300.990892,115 C298.703421,115 296.434432,114.594164 294.183855,113.782481 C291.933279,112.970798 289.904101,111.771738 288.096261,110.185267 C286.288421,108.598795 284.831103,106.606511 283.724262,104.208356 C282.617421,101.810201 282.064009,98.9877995 282.064009,95.7410666 L282.064009,54.1240609 Z M293.353729,95.7410666 C293.353729,98.4712738 294.110059,100.482004 295.622741,101.773319 C297.135424,103.064633 298.924789,103.71028 300.990892,103.71028 C303.056995,103.71028 304.846361,103.064633 306.359043,101.773319 C307.871726,100.482004 308.628055,98.4712738 308.628055,95.7410666 L308.628055,54.1240609 C308.628055,51.3938537 307.871726,49.3831231 306.359043,48.0918088 C304.846361,46.8004945 303.056995,46.1548471 300.990892,46.1548471 C298.924789,46.1548471 297.135424,46.8004945 295.622741,48.0918088 C294.110059,49.3831231 293.353729,51.3938537 293.353729,54.1240609 L293.353729,95.7410666 Z M329.879292,35.5292287 L341.169012,35.5292287 L341.169012,103.046179 L363.527084,103.046179 L363.527084,114.335899 L329.879292,114.335899 L329.879292,35.5292287 Z M370.168096,54.1240609 C370.168096,50.9511173 370.721508,48.1471627 371.828348,45.712113 C372.935189,43.2770633 374.392508,41.2663327 376.200348,39.6798609 C378.008188,38.0933891 380.037365,36.8943295 382.287942,36.0826463 C384.538518,35.270963 386.807507,34.8651275 389.094978,34.8651275 C391.382449,34.8651275 393.651439,35.270963 395.902015,36.0826463 C398.152592,36.8943295 400.181769,38.0933891 401.989609,39.6798609 C403.797449,41.2663327 405.254768,43.2770633 406.361608,45.712113 C407.468449,48.1471627 408.021861,50.9511173 408.021861,54.1240609 L408.021861,95.7410666 C408.021861,98.9877995 407.468449,101.810201 406.361608,104.208356 C405.254768,106.606511 403.797449,108.598795 401.989609,110.185267 C400.181769,111.771738 398.152592,112.970798 395.902015,113.782481 C393.651439,114.594164 391.382449,115 389.094978,115 C386.807507,115 384.538518,114.594164 382.287942,113.782481 C380.037365,112.970798 378.008188,111.771738 376.200348,110.185267 C374.392508,108.598795 372.935189,106.606511 371.828348,104.208356 C370.721508,101.810201 370.168096,98.9877995 370.168096,95.7410666 L370.168096,54.1240609 Z M381.457815,95.7410666 C381.457815,98.4712738 382.214145,100.482004 383.726827,101.773319 C385.23951,103.064633 387.028876,103.71028 389.094978,103.71028 C391.161081,103.71028 392.950447,103.064633 394.463129,101.773319 C395.975812,100.482004 396.732142,98.4712738 396.732142,95.7410666 L396.732142,54.1240609 C396.732142,51.3938537 395.975812,49.3831231 394.463129,48.0918088 C392.950447,46.8004945 391.161081,46.1548471 389.094978,46.1548471 C387.028876,46.1548471 385.23951,46.8004945 383.726827,48.0918088 C382.214145,49.3831231 381.457815,51.3938537 381.457815,54.1240609 L381.457815,95.7410666 Z M417.319277,54.1240609 C417.319277,50.9511173 417.87269,48.1471627 418.97953,45.712113 C420.086371,43.2770633 421.54369,41.2663327 423.35153,39.6798609 C425.15937,38.0933891 427.188547,36.8943295 429.439124,36.0826463 C431.6897,35.270963 433.958689,34.8651275 436.24616,34.8651275 C438.533631,34.8651275 440.802621,35.270963 443.053197,36.0826463 C445.303773,36.8943295 447.332951,38.0933891 449.140791,39.6798609 C450.948631,41.2663327 452.40595,43.2770633 453.51279,45.712113 C454.619631,48.1471627 455.173043,50.9511173 455.173043,54.1240609 L455.173043,58.1086679 L443.883324,58.1086679 L443.883324,54.1240609 C443.883324,51.3938537 443.126994,49.3831231 441.614311,48.0918088 C440.101629,46.8004945 438.312263,46.1548471 436.24616,46.1548471 C434.180058,46.1548471 432.390692,46.8004945 430.878009,48.0918088 C429.365327,49.3831231 428.608997,51.3938537 428.608997,54.1240609 L428.608997,95.7410666 C428.608997,98.4712738 429.365327,100.482004 430.878009,101.773319 C432.390692,103.064633 434.180058,103.71028 436.24616,103.71028 C438.312263,103.71028 440.101629,103.064633 441.614311,101.773319 C443.126994,100.482004 443.883324,98.4712738 443.883324,95.7410666 L443.883324,80.9094741 L434.917958,80.9094741 L434.917958,70.9479568 L455.173043,70.9479568 L455.173043,95.7410666 C455.173043,98.9877995 454.619631,101.810201 453.51279,104.208356 C452.40595,106.606511 450.948631,108.598795 449.140791,110.185267 C447.332951,111.771738 445.303773,112.970798 443.053197,113.782481 C440.802621,114.594164 438.533631,115 436.24616,115 C433.958689,115 431.6897,114.594164 429.439124,113.782481 C427.188547,112.970798 425.15937,111.771738 423.35153,110.185267 C421.54369,108.598795 420.086371,106.606511 418.97953,104.208356 C417.87269,101.810201 417.319277,98.9877995 417.319277,95.7410666 L417.319277,54.1240609 Z M465.466611,35.5292287 L476.756331,35.5292287 L476.756331,114.335899 L465.466611,114.335899 L465.466611,35.5292287 Z M487.714,35.5292287 L521.361791,35.5292287 L521.361791,46.1548471 L499.003719,46.1548471 L499.003719,69.2877039 L518.48402,69.2877039 L518.48402,79.9133224 L499.003719,79.9133224 L499.003719,103.046179 L521.361791,103.046179 L521.361791,114.335899 L487.714,114.335899 L487.714,35.5292287 Z M579.249275,108.358988 C577.035594,110.57267 574.72971,112.232906 572.331555,113.339747 C569.9334,114.446588 567.221681,115 564.196316,115 C561.982634,115 559.879668,114.55727 557.887355,113.671798 C555.895041,112.786325 554.161017,111.550371 552.685229,109.9639 C551.209441,108.377428 550.047276,106.458933 549.198698,104.208356 C548.35012,101.95778 547.925838,99.4674256 547.925838,96.7372183 C547.925838,92.3836445 548.958874,88.5835481 551.024976,85.3368152 C553.091079,82.0900822 555.673669,79.0647627 558.772823,76.2607661 C556.78051,73.4567694 555.13872,70.5605794 553.847406,67.5721093 C552.556092,64.5836392 551.910445,61.4291902 551.910445,58.1086679 C551.910445,56.0425651 552.242492,54.0687286 552.906596,52.1870992 C553.570701,50.3054699 554.529948,48.6821278 555.784368,47.3170241 C557.038787,45.9519205 558.625235,44.8635434 560.54376,44.0518601 C562.462284,43.2401769 564.712826,42.8343413 567.295455,42.8343413 C569.730504,42.8343413 571.870364,43.2217298 573.715099,43.9965184 C575.559834,44.7713069 577.109388,45.8043428 578.363807,47.0956571 C579.618227,48.3869713 580.577474,49.8996311 581.241579,51.6336816 C581.905683,53.3677322 582.237731,55.1939921 582.237731,57.1125161 C582.237731,60.8019854 581.094012,64.3253758 578.806541,67.6827928 C576.51907,71.0402099 573.825798,74.1208705 570.726644,76.9248672 C572.128642,79.0647594 573.733537,81.6473492 575.541377,84.672714 C577.349217,87.6980788 579.212371,90.6127159 581.130895,93.4167125 L587.218489,85.1154481 L594.191551,89.9855232 L585.779603,100.832509 L594.302235,114.335899 L583.012515,114.335899 L579.249275,108.358988 Z M557.887355,96.1838007 C557.887355,98.9140079 558.680579,101.256786 560.267051,103.212205 C561.853523,105.167623 563.864253,106.145318 566.299303,106.145318 C567.996459,106.145318 569.619801,105.610353 571.169378,104.540407 C572.718955,103.470461 573.899568,102.418978 574.711251,101.385926 L563.864265,84.1192964 C562.167109,85.8164522 560.746685,87.6427122 559.60295,89.5981309 C558.459214,91.5535496 557.887355,93.7487509 557.887355,96.1838007 L557.887355,96.1838007 Z M561.871962,58.3300349 C561.871962,60.0271908 562.277797,61.8534507 563.089481,63.8088694 C563.901164,65.7642882 564.9342,67.7381246 566.188619,69.730438 C566.852724,69.0663336 567.590607,68.3100037 568.40229,67.4614258 C569.213973,66.6128478 569.951856,65.6720473 570.61596,64.6389959 C571.280065,63.6059445 571.833477,62.4806732 572.276213,61.2631483 C572.71895,60.0456235 572.940314,58.7358815 572.940314,57.3338832 C572.940314,55.9318849 572.460691,54.64059 571.501429,53.4599598 C570.542167,52.2793296 569.213978,51.6890234 567.516822,51.6890234 C565.819666,51.6890234 564.454583,52.371565 563.421531,53.7366686 C562.38848,55.1017722 561.871962,56.632879 561.871962,58.3300349 L561.871962,58.3300349 Z M669.899083,114.335899 L659.273464,114.335899 L650.640149,63.20011 L650.418782,63.20011 L641.896151,114.335899 L631.270532,114.335899 L619.538079,35.5292287 L631.491899,35.5292287 L637.136759,85.5581822 L637.358126,85.5581822 L646.212808,35.5292287 L654.846123,35.5292287 L664.032856,86.775701 L664.254223,86.775701 L669.677716,35.5292287 L681.631536,35.5292287 L669.899083,114.335899 Z M702.661406,58.2193514 L702.440039,58.2193514 L696.905863,86.775701 L708.195583,86.775701 L702.661406,58.2193514 Z M697.902015,35.5292287 L707.310114,35.5292287 L724.908795,114.335899 L713.619075,114.335899 L710.29857,97.4013194 L694.91356,97.4013194 L691.593054,114.335899 L680.303334,114.335899 L697.902015,35.5292287 Z M731.771174,46.1548471 L718.710518,46.1548471 L718.710518,35.5292287 L756.121549,35.5292287 L756.121549,46.1548471 L743.060893,46.1548471 L743.060893,114.335899 L731.771174,114.335899 L731.771174,46.1548471 Z M761.102308,35.5292287 L794.7501,35.5292287 L794.7501,46.1548471 L772.392027,46.1548471 L772.392027,69.2877039 L791.872328,69.2877039 L791.872328,79.9133224 L772.392027,79.9133224 L772.392027,103.046179 L794.7501,103.046179 L794.7501,114.335899 L761.102308,114.335899 L761.102308,35.5292287 Z M813.344932,70.7265898 L819.764576,70.7265898 C821.75689,70.7265898 823.343338,70.4498837 824.523968,69.8964633 C825.704598,69.3430429 826.608505,68.5498189 827.235714,67.5167675 C827.862924,66.4837161 828.287207,65.2108683 828.508575,63.6981859 C828.729943,62.1855035 828.840625,60.4330319 828.840625,58.4407184 C828.840625,56.448405 828.729943,54.6959334 828.508575,53.183251 C828.287207,51.6705686 827.82603,50.3792737 827.125031,49.3093276 C826.424032,48.2393815 825.446337,47.4461575 824.191917,46.9296318 C822.937498,46.4131061 821.277262,46.1548471 819.211159,46.1548471 L813.344932,46.1548471 L813.344932,70.7265898 Z M802.055212,35.5292287 L820.20731,35.5292287 C833.4894,35.5292287 840.130345,43.2401038 840.130345,58.6620855 C840.130345,63.2370274 839.410909,67.1662533 837.972016,70.449881 C836.533123,73.7335086 834.005875,76.3714396 830.390195,78.363753 L842.565383,114.335899 L830.611562,114.335899 L820.096627,80.6881071 L813.344932,80.6881071 L813.344932,114.335899 L802.055212,114.335899 L802.055212,35.5292287 Z M849.206394,35.5292287 L860.496114,35.5292287 L860.496114,71.5013745 L860.717481,71.5013745 L877.209326,35.5292287 L888.499046,35.5292287 L873.114036,67.0740334 L891.376817,114.335899 L879.422997,114.335899 L866.583708,79.3599048 L860.496114,90.7603079 L860.496114,114.335899 L849.206394,114.335899 L849.206394,35.5292287 Z M943.176707,114.335899 L932.551089,114.335899 L923.917774,63.20011 L923.696407,63.20011 L915.173775,114.335899 L904.548157,114.335899 L892.815703,35.5292287 L904.769524,35.5292287 L910.414384,85.5581822 L910.635751,85.5581822 L919.490433,35.5292287 L928.123748,35.5292287 L937.310481,86.775701 L937.531848,86.775701 L942.95534,35.5292287 L954.909161,35.5292287 L943.176707,114.335899 Z M975.939031,58.2193514 L975.717664,58.2193514 L970.183488,86.775701 L981.473207,86.775701 L975.939031,58.2193514 Z M971.179639,35.5292287 L980.587739,35.5292287 L998.18642,114.335899 L986.8967,114.335899 L983.576194,97.4013194 L968.191184,97.4013194 L964.870678,114.335899 L953.580959,114.335899 L971.179639,35.5292287 Z M1003.7206,35.5292287 L1015.01032,35.5292287 L1015.01032,103.046179 L1037.36839,103.046179 L1037.36839,114.335899 L1003.7206,114.335899 L1003.7206,35.5292287 Z M1045.00555,35.5292287 L1056.29527,35.5292287 L1056.29527,114.335899 L1045.00555,114.335899 L1045.00555,35.5292287 Z M1074.66874,46.1548471 L1061.60808,46.1548471 L1061.60808,35.5292287 L1099.01911,35.5292287 L1099.01911,46.1548471 L1085.95846,46.1548471 L1085.95846,114.335899 L1074.66874,114.335899 L1074.66874,46.1548471 Z M1103.99987,35.5292287 L1137.64766,35.5292287 L1137.64766,46.1548471 L1115.28959,46.1548471 L1115.28959,69.2877039 L1134.76989,69.2877039 L1134.76989,79.9133224 L1115.28959,79.9133224 L1115.28959,103.046179 L1137.64766,103.046179 L1137.64766,114.335899 L1103.99987,114.335899 L1103.99987,35.5292287 Z M1145.28483,35.5292287 L1156.57454,35.5292287 L1156.57454,114.335899 L1145.28483,114.335899 L1145.28483,35.5292287 Z M1174.94801,46.1548471 L1161.88735,46.1548471 L1161.88735,35.5292287 L1199.29839,35.5292287 L1199.29839,46.1548471 L1186.23773,46.1548471 L1186.23773,114.335899 L1174.94801,114.335899 L1174.94801,46.1548471 Z" id="ECOLOGIE-&amp;-WATERKWAL" fill="#FFFFFF" sketch:type="MSShapeGroup"></path>
        </g>
    </g>
</svg>