<?xml version="1.0" encoding="UTF-8" standalone="no"?>
<svg width="1421px" height="304px" viewBox="0 0 1421 304" version="1.1" xmlns="http://www.w3.org/2000/svg" xmlns:xlink="http://www.w3.org/1999/xlink" xmlns:sketch="http://www.bohemiancoding.com/sketch/ns">
    <!-- Generator: Sketch 3.1.1 (8761) - http://www.bohemiancoding.com/sketch -->
    <title>Untitled 2</title>
    <desc>Created with Sketch.</desc>
    <defs>
        <path id="path-1" d="M0.164,58.32 L58.694,58.32 L58.694,-0.21 L0.164,-0.21 L0.164,58.32 L0.164,58.32 Z"></path>
        <path id="path-3" d="M0.403,58.19 L58.934,58.19 L58.934,-0.34 L0.403,-0.34 L0.403,58.19 L0.403,58.19 Z"></path>
        <path id="path-5" d="M0.088,58.49 L58.618,58.49 L58.618,-0.04 L0.088,-0.04 L0.088,58.49 L0.088,58.49 Z"></path>
        <path id="path-7" d="M41.571,0.102 L0.183,41.49 L41.571,82.877 L82.958,41.49 L41.571,0.102 L41.571,0.102 Z"></path>
        <path id="path-9" d="M41.622,0.386 L0.235,41.773 L41.622,83.16 L83.009,41.773 L41.622,0.386 L41.622,0.386 Z"></path>
        <path id="path-11" d="M-0.451,58.32 L58.08,58.32 L58.08,-0.21 L-0.451,-0.21 L-0.451,58.32 L-0.451,58.32 Z"></path>
        <path id="path-13" d="M41.144,-0.195 L-0.244,41.192 L41.144,82.579 L82.531,41.192 L41.144,-0.195 L41.144,-0.195 Z"></path>
        <path id="path-15" d="M41.011,0.4 L-0.377,41.787 L41.011,83.174 L82.398,41.787 L41.011,0.4 L41.011,0.4 Z"></path>
    </defs>
    <g id="Page-1" stroke="none" stroke-width="1" fill="none" fill-rule="evenodd" sketch:type="MSPage">
        <g id="efcis-logo" sketch:type="MSLayerGroup" transform="translate(10.000000, 10.000000)">
            <g id="Group-3" transform="translate(41.000000, 41.000000)">
                <mask id="mask-2" sketch:name="Clip 2" fill="white">
                    <use xlink:href="#path-1"></use>
                </mask>
                <g id="Clip-2"></g>
                <path d="M0.1,-0.3 L58.78,-0.3 L58.78,58.38 L0.1,58.38 L0.1,-0.3 Z" id="Fill-1" fill="#DBE886" sketch:type="MSShapeGroup" mask="url(#mask-2)"></path>
            </g>
            <g id="Group-6" transform="translate(41.000000, 184.000000)">
                <mask id="mask-4" sketch:name="Clip 5" fill="white">
                    <use xlink:href="#path-3"></use>
                </mask>
                <g id="Clip-5"></g>
                <path d="M0.34,-0.38 L59.02,-0.38 L59.02,58.3 L0.34,58.3 L0.34,-0.38 Z" id="Fill-4" fill="#4093E3" sketch:type="MSShapeGroup" mask="url(#mask-4)"></path>
            </g>
            <g id="Group-9" transform="translate(183.000000, 183.000000)">
                <mask id="mask-6" sketch:name="Clip 8" fill="white">
                    <use xlink:href="#path-5"></use>
                </mask>
                <g id="Clip-8"></g>
                <path d="M0.06,-0.1 L58.62,-0.1 L58.62,58.58 L0.06,58.58 L0.06,-0.1 Z" id="Fill-7" fill="#FFD700" sketch:type="MSShapeGroup" mask="url(#mask-6)"></path>
            </g>
            <g id="Group-12" transform="translate(0.000000, 100.000000)">
                <mask id="mask-8" sketch:name="Clip 11" fill="white">
                    <use xlink:href="#path-7"></use>
                </mask>
                <g id="Clip-11"></g>
                <path d="M0.18,0.1 L82.98,0.1 L82.98,82.9 L0.18,82.9 L0.18,0.1 Z" id="Fill-10" fill="#236C9F" sketch:type="MSShapeGroup" mask="url(#mask-8)"></path>
            </g>
            <g id="Group-15" transform="translate(200.000000, 99.000000)">
                <mask id="mask-10" sketch:name="Clip 14" fill="white">
                    <use xlink:href="#path-9"></use>
                </mask>
                <g id="Clip-14"></g>
                <path d="M0.22,0.38 L83.02,0.38 L83.02,83.18 L0.22,83.18 L0.22,0.38 Z" id="Fill-13" fill="#FF9D0E" sketch:type="MSShapeGroup" mask="url(#mask-10)"></path>
            </g>
            <g id="Group-18" transform="translate(184.000000, 41.000000)">
                <mask id="mask-12" sketch:name="Clip 17" fill="white">
                    <use xlink:href="#path-11"></use>
                </mask>
                <g id="Clip-17"></g>
                <path d="M-0.46,-0.3 L58.1,-0.3 L58.1,58.38 L-0.46,58.38 L-0.46,-0.3 Z" id="Fill-16" fill="#328807" sketch:type="MSShapeGroup" mask="url(#mask-12)"></path>
            </g>
            <text id="ECOLOGIEDATA.NL" sketch:type="MSTextLayer" font-family="DIN Condensed" font-size="192.2775" font-weight="bold" fill="#FFFFFF">
                <tspan x="329.5893" y="206.7855">ECOLOGIEDATA.NL</tspan>
            </text>
            <g id="Group-21" transform="translate(100.000000, 0.000000)">
                <mask id="mask-14" sketch:name="Clip 20" fill="white">
                    <use xlink:href="#path-13"></use>
                </mask>
                <g id="Clip-20"></g>
                <path d="M-0.34,-0.22 L82.58,-0.22 L82.58,82.58 L-0.34,82.58 L-0.34,-0.22 Z" id="Fill-19" fill="#BCE886" sketch:type="MSShapeGroup" mask="url(#mask-14)"></path>
            </g>
            <g id="Group-24" transform="translate(101.000000, 200.000000)">
                <mask id="mask-16" sketch:name="Clip 23" fill="white">
                    <use xlink:href="#path-15"></use>
                </mask>
                <g id="Clip-23"></g>
                <path d="M-0.38,0.3 L82.42,0.3 L82.42,83.22 L-0.38,83.22 L-0.38,0.3 Z" id="Fill-22" fill="#C2E0FF" sketch:type="MSShapeGroup" mask="url(#mask-16)"></path>
            </g>
        </g>
    </g>
</svg>