<?xml version="1.0" encoding="UTF-8" standalone="no"?>
<svg width="427px" height="326px" viewBox="0 0 427 326" version="1.1" xmlns="http://www.w3.org/2000/svg" xmlns:xlink="http://www.w3.org/1999/xlink" xmlns:sketch="http://www.bohemiancoding.com/sketch/ns">
    <!-- Generator: Sketch 3.1.1 (8761) - http://www.bohemiancoding.com/sketch -->
    <title>efcis-banner 2</title>
    <desc>Created with Sketch.</desc>
    <defs></defs>
    <g id="Page-1" stroke="none" stroke-width="1" fill="none" fill-rule="evenodd" sketch:type="MSPage">
        <g id="Group" sketch:type="MSLayerGroup" transform="translate(97.000000, 81.000000)" fill="#FFFFFF">
            <circle id="Oval-4" sketch:type="MSShapeGroup" cx="36.5" cy="26.5" r="2.5"></circle>
            <circle id="Oval-5" sketch:type="MSShapeGroup" cx="30.5" cy="22.5" r="2.5"></circle>
            <circle id="Oval-6" sketch:type="MSShapeGroup" cx="23.5" cy="17.5" r="2.5"></circle>
            <circle id="Oval-7" sketch:type="MSShapeGroup" cx="16.5" cy="12.5" r="2.5"></circle>
            <circle id="Oval-8" sketch:type="MSShapeGroup" cx="9.5" cy="7.5" r="2.5"></circle>
            <circle id="Oval-9" sketch:type="MSShapeGroup" cx="2.5" cy="2.5" r="2.5"></circle>
        </g>
        <g id="Group-2" sketch:type="MSLayerGroup" transform="translate(274.500000, 101.500000) scale(-1, 1) rotate(9.000000) translate(-274.500000, -101.500000) translate(255.000000, 87.000000)" fill="#FFFFFF">
            <circle id="Oval-4" sketch:type="MSShapeGroup" cx="36.5" cy="26.5" r="2.5"></circle>
            <circle id="Oval-5" sketch:type="MSShapeGroup" cx="30.5" cy="22.5" r="2.5"></circle>
            <circle id="Oval-6" sketch:type="MSShapeGroup" cx="23.5" cy="17.5" r="2.5"></circle>
            <circle id="Oval-7" sketch:type="MSShapeGroup" cx="16.5" cy="12.5" r="2.5"></circle>
            <circle id="Oval-8" sketch:type="MSShapeGroup" cx="9.5" cy="7.5" r="2.5"></circle>
            <circle id="Oval-9" sketch:type="MSShapeGroup" cx="2.5" cy="2.5" r="2.5"></circle>
        </g>
        <g id="Group-4" sketch:type="MSLayerGroup" transform="translate(109.500000, 207.500000) scale(-1, 1) rotate(180.000000) translate(-109.500000, -207.500000) translate(90.000000, 193.000000)" fill="#FFFFFF">
            <circle id="Oval-4" sketch:type="MSShapeGroup" cx="36.5" cy="26.5" r="2.5"></circle>
            <circle id="Oval-5" sketch:type="MSShapeGroup" cx="30.5" cy="22.5" r="2.5"></circle>
            <circle id="Oval-6" sketch:type="MSShapeGroup" cx="23.5" cy="17.5" r="2.5"></circle>
            <circle id="Oval-7" sketch:type="MSShapeGroup" cx="16.5" cy="12.5" r="2.5"></circle>
            <circle id="Oval-8" sketch:type="MSShapeGroup" cx="9.5" cy="7.5" r="2.5"></circle>
            <circle id="Oval-9" sketch:type="MSShapeGroup" cx="2.5" cy="2.5" r="2.5"></circle>
        </g>
        <g id="Group-5" sketch:type="MSLayerGroup" transform="translate(325.500000, 207.500000) scale(-1, 1) rotate(295.000000) translate(-325.500000, -207.500000) translate(306.000000, 193.000000)" fill="#FFFFFF">
            <circle id="Oval-4" sketch:type="MSShapeGroup" cx="36.5" cy="26.5" r="2.5"></circle>
            <circle id="Oval-5" sketch:type="MSShapeGroup" cx="30.5" cy="22.5" r="2.5"></circle>
            <circle id="Oval-6" sketch:type="MSShapeGroup" cx="23.5" cy="17.5" r="2.5"></circle>
            <circle id="Oval-7" sketch:type="MSShapeGroup" cx="16.5" cy="12.5" r="2.5"></circle>
            <circle id="Oval-8" sketch:type="MSShapeGroup" cx="9.5" cy="7.5" r="2.5"></circle>
            <circle id="Oval-9" sketch:type="MSShapeGroup" cx="2.5" cy="2.5" r="2.5"></circle>
        </g>
        <path d="M186,193.946867 C166.495438,192.907942 151,176.763548 151,157 C151,136.565464 167.565464,120 188,120 C203.719833,120 217.149996,129.803247 222.510461,143.629714 C225.306205,142.57632 228.335799,142 231.5,142 C241.655873,142 250.425076,147.937042 254.526195,156.529713 L254.526195,156.529713 C255.960849,156.183454 257.459001,156 259,156 C269.49341,156 278,164.50659 278,175 C278,185.49341 269.49341,194 259,194 L186,194 L186,193.946867 Z" id="Oval-1" fill="#FFFFFF" sketch:type="MSShapeGroup"></path>
        <g id="Scroll" sketch:type="MSLayerGroup" transform="translate(17.000000, 16.000000)">
            <path d="M55.4219212,11.4592589 L55.4219212,59.5083795 C55.4219212,59.5083795 55.5790526,63.4006167 52.4633455,64.6315099 C52.1310442,64.7879597 51.7420697,64.8957658 51.2868284,64.935966 C50.9922224,64.9777085 50.6766695,65 50.338683,65 C45.0337455,65 3.8870157,65 3.8870157,65 C3.8870157,65 3.97665204e-07,64.1691502 0,59.3701702 C-3.97665218e-07,54.5711902 3.55090784,53.9241527 3.55090784,53.9241527 L9.79627254,53.9241527 L9.79627254,5.82770817 C9.79627254,5.82770817 9.57457332,0.289548459 14.8795107,0.289548509 C20.1844482,0.289548558 61.331178,0.289548509 61.331178,0.289548509 C61.331178,0.289548509 65.2181933,1.12743942 65.2181937,5.96708872 C65.2181941,10.806738 61.6672859,11.4592589 61.6672859,11.4592589 L55.4219212,11.4592589 Z" id="Path-2" fill="#FFFFFF" sketch:type="MSShapeGroup"></path>
            <path d="M47.7625609,53.9241525 C47.7625609,53.9241525 43.1411112,53.7403402 43.1411111,59.3701701 C43.1411111,65.0000001 49.4811991,65 47.7625609,65 L3.8870157,65 C3.8870157,65 3.97665204e-07,64.1691502 0,59.3701702 C-3.97665197e-07,54.5711902 3.55090784,53.9241527 3.55090784,53.9241527 L10.8237459,53.9241527 L47.7625609,53.9241525 Z" id="Path-4" fill="#E6E6E6" sketch:type="MSShapeGroup"></path>
            <path d="M55,10.2163809 L61.4784026,10.2163809 C61.4784026,10.2163809 64.4608129,8.69352423 64.4608128,6.44818438 C64.4608127,4.20284454 62.5677695,1.7362767 61.4784025,1.73627671 C60.3890355,1.73627671 57.2717591,1.73627671 57.2717591,1.73627671 C57.2717591,1.73627671 55,2.44554862 55,4.47951051 C55,6.51347241 55,10.2163809 55,10.2163809 Z" id="Path-4" fill="#D8D8D8" sketch:type="MSShapeGroup"></path>
            <text id="" sketch:type="MSTextLayer" font-family="FontAwesome" font-size="20" font-weight="normal" fill="#333333">
                <tspan x="20.8333333" y="37.8333333"></tspan>
            </text>
        </g>
        <g id="Compass" sketch:type="MSLayerGroup" transform="translate(354.000000, 204.000000)">
            <ellipse id="Oval-34" fill="#3E4F55" sketch:type="MSShapeGroup" cx="30.5" cy="43.8518519" rx="30.5" ry="30.1481481"></ellipse>
            <path d="M30.5,10.962963 C33.56267,10.962963 36.0454545,8.50882011 36.0454545,5.48148148 C36.0454545,2.45414285 33.56267,0 30.5,0 C27.43733,0 24.9545455,2.45414285 24.9545455,5.48148148 C24.9545455,8.50882011 27.43733,10.962963 30.5,10.962963 Z M30.5,9.13580247 C32.54178,9.13580247 34.1969697,7.49970723 34.1969697,5.48148148 C34.1969697,3.46325573 32.54178,1.82716049 30.5,1.82716049 C28.45822,1.82716049 26.8030303,3.46325573 26.8030303,5.48148148 C26.8030303,7.49970723 28.45822,9.13580247 30.5,9.13580247 Z" id="Oval-36" fill="#3E4F55" sketch:type="MSShapeGroup"></path>
            <rect id="Rectangle-3" fill="#3E4F55" sketch:type="MSShapeGroup" x="29.1136364" y="9.59259259" width="2.77272727" height="5.48148148"></rect>
            <ellipse id="Oval-35" fill="#EFF3F6" sketch:type="MSShapeGroup" cx="30.5" cy="43.8518519" rx="24.9545455" ry="24.6666667"></ellipse>
            <g id="Triangle-1-+-Triangle-2" transform="translate(11.090909, 27.407407)" sketch:type="MSShapeGroup">
                <polygon id="Triangle-1" fill="#347CB9" transform="translate(25.956158, 9.786439) rotate(50.000000) translate(-25.956158, -9.786439) " points="25.9561581 -0.594405975 30.827396 20.1672836 21.0849202 20.1672836 "></polygon>
                <polygon id="Triangle-2" fill="#303F4B" transform="translate(10.369839, 22.813098) scale(-1, -1) rotate(50.000000) translate(-10.369839, -22.813098) " points="10.3698388 13.1953255 15.3913332 32.4308711 5.34834437 32.4308711 "></polygon>
            </g>
        </g>
        <g id="Vial" sketch:type="MSLayerGroup" transform="translate(311.028222, 10.871953)">
            <g id="layer1" transform="translate(-0.200637, -0.350161)" sketch:type="MSShapeGroup">
                <g id="g10404" transform="translate(33.114607, 57.201854) scale(1, -1) translate(-33.114607, -57.201854) translate(4.718056, 6.347485)" fill="#FFFFFF">
                    <path d="M0,94.368932 L37.4229741,6.47213592 C39.5829526,1.4011165 45.3832112,-0.996116505 50.3789009,1.11800971 C55.3759052,3.23213592 57.6752371,9.05679612 55.5165733,14.1291262 L18.0935991,102.025922 L0,94.368932 L0,94.368932 Z" id="path10406"></path>
                </g>
                <path d="M25.8416719,4.94147184 L2.15552966,14.9655495 L0.200637414,10.3729282 L23.8867797,0.350161165 L25.8416719,4.94147184 L25.8416719,4.94147184 Z" id="path10410" fill="#FFFFFF"></path>
                <path d="M30.2641719,35.3898699 L34.5407452,33.5798214 M33.1971676,42.2774913 L37.4737409,40.4674427 M35.5701202,47.8531223 L39.8466934,46.0430738 M37.7353572,52.9359379 L42.0119305,51.1272 M39.9689564,58.183899 L44.2455297,56.3738505" id="path10414" stroke="#347CB9" stroke-width="2.03875017"></path>
            </g>
        </g>
        <g id="Hazard" sketch:type="MSLayerGroup" transform="translate(23.000000, 208.000000)">
            <path d="M27.8144904,0 L-0.203025478,48.3272059 L3.6544586,55 L59.6894904,55 L63.5469745,48.3272059 L35.5294586,0 L27.8144904,0 Z" id="Shape" stroke="#D5D5D5" stroke-width="4" fill="#EFF3F6" sketch:type="MSShapeGroup"></path>
            <path d="M15.6329618,37.8125 C15.6329618,34.4154412 17.6632166,31.0588235 21.3988854,29.1176471 C21.3988854,22.7279412 25.0533439,19.0882353 29.8447452,18.6029412 C26.9211783,19.6544118 24.9721338,22.1617647 24.9721338,25.2757353 C24.9721338,28.9558824 27.9769108,31.9485294 31.6719745,31.9485294 C35.3670382,31.9485294 38.3718153,28.9558824 38.3718153,25.2757353 C38.3718153,22.1617647 36.4227707,19.6544118 33.4992038,18.6029412 C38.2906051,19.0882353 41.9450637,22.7279412 41.9450637,29.1176471 C45.6807325,31.0588235 47.7109873,34.4154412 47.7109873,37.8125 C47.7109873,39.2279412 47.3455414,40.6029412 46.8582803,41.5735294 C46.9394904,41.2095588 46.9800955,40.6838235 46.9800955,40.1176471 C46.9800955,36.2352941 43.8941083,33.1617647 40.1178344,33.1617647 C36.4227707,33.1617647 33.4179936,36.1544118 33.4179936,39.8345588 C33.4179936,43.5147059 36.4633758,46.5073529 40.1990446,46.5073529 C42.1886943,46.5073529 43.8128981,45.7389706 44.9904459,44.7279412 C43.366242,47.0330882 40.808121,48.5294118 37.5597134,48.5294118 C35.2046178,48.5294118 32.6871019,47.3970588 31.6719745,46.7095588 C30.6568471,47.3970588 28.1393312,48.5294118 25.7842357,48.5294118 C22.535828,48.5294118 19.977707,47.0330882 18.3535032,44.7279412 C19.531051,45.7389706 21.1552548,46.5073529 23.1449045,46.5073529 C26.8805732,46.5073529 29.9259554,43.5147059 29.9259554,39.8345588 C29.9259554,36.1544118 26.9211783,33.1617647 23.2261146,33.1617647 C19.4498408,33.1617647 16.3638535,36.2352941 16.3638535,40.1176471 C16.3638535,40.6838235 16.4044586,41.2095588 16.4856688,41.5735294 C15.9984076,40.6029412 15.6329618,39.2279412 15.6329618,37.8125 L15.6329618,37.8125 Z M21.9267516,34.5772059 L24.5660828,34.5772059 C24.5660828,38.4595588 26.5963376,40.3198529 28.5047771,41.3308824 L27.1648089,43.5955882 C24.0382166,41.8566176 21.9267516,39.0257353 21.9267516,34.5772059 L21.9267516,34.5772059 Z M26.4339172,26.7720588 C27.9363057,25.8014706 29.763535,25.2757353 31.6719745,25.2757353 C33.580414,25.2757353 35.4076433,25.8014706 36.9100318,26.7720588 L35.6106688,29.0772059 C34.4737261,28.3492647 33.133758,27.9044118 31.6719745,27.9044118 C30.2101911,27.9044118 28.8702229,28.3492647 27.7332803,29.0772059 L26.4339172,26.7720588 Z M29.6417197,34.9816176 C29.6417197,36.1139706 30.5350318,37.0036765 31.6719745,37.0036765 C32.8089172,37.0036765 33.7022293,36.1139706 33.7022293,34.9816176 C33.7022293,33.8492647 32.8089172,32.9595588 31.6719745,32.9595588 C30.5350318,32.9595588 29.6417197,33.8492647 29.6417197,34.9816176 L29.6417197,34.9816176 Z M34.839172,41.3308824 C36.7476115,40.3198529 38.7778662,38.4595588 38.7778662,34.5772059 L41.4171975,34.5772059 C41.4171975,39.0257353 39.3057325,41.8566176 36.1791401,43.5955882 L34.839172,41.3308824 Z" id="Shape" fill="#3E4F55" sketch:type="MSShapeGroup"></path>
        </g>
    </g>
</svg>